<svg width="100" height="100" viewBox="0 0 100 100" fill="none" xmlns="http://www.w3.org/2000/svg">
<path d="M61.2946 22.8208C64.0539 19.3695 65.9264 14.7355 65.4325 10C61.3933 10.2008 56.4642 12.6648 53.6105 16.1188C51.0482 19.0766 48.7803 23.9047 49.3715 28.4416C53.9058 28.8349 58.4358 26.1752 61.2946 22.8208Z" fill="white"/>
<path d="M65.381 29.3274C58.7962 28.9352 53.1975 33.0646 50.0529 33.0646C46.9066 33.0646 42.0913 29.5251 36.883 29.6205C30.1042 29.72 23.8142 33.5528 20.3743 39.6488C13.2988 51.8437 18.507 69.933 25.3875 79.8651C28.7288 84.7788 32.7557 90.1892 38.0617 89.9949C43.075 89.7981 45.04 86.7487 51.1339 86.7487C57.2232 86.7487 58.9933 89.9948 64.3001 89.8965C69.8035 89.7981 73.2441 84.9804 76.5853 80.0618C80.4185 74.4605 81.9876 69.0519 82.0863 68.755C81.9876 68.6566 71.4743 64.6235 71.3768 52.5299C71.2775 42.4038 79.6309 37.5873 80.0241 37.2886C75.3068 30.3118 67.9363 29.5251 65.381 29.3274Z" fill="white"/>
</svg>
