<svg width="100" height="100" viewBox="0 0 100 100" fill="none" xmlns="http://www.w3.org/2000/svg">
<path d="M47.92 90L45.92 88.48L44.8 86L45.92 81.04L47.2 74.64L48.24 69.52L49.2 63.2L49.76 61.12L49.68 60.96L49.28 61.04L44.48 67.6L37.2 77.44L31.44 83.52L30.08 84.08L27.68 82.88L27.92 80.64L29.28 78.72L37.2 68.56L42 62.24L45.12 58.64L45.04 58.16H44.88L23.76 71.92L20 72.4L18.32 70.88L18.56 68.4L19.36 67.6L25.68 63.2L41.44 54.4L41.68 53.6L41.44 53.2H40.64L38 53.04L29.04 52.8L21.28 52.48L13.68 52.08L11.76 51.68L10 49.28L10.16 48.08L11.76 47.04L14.08 47.2L19.12 47.6L26.72 48.08L32.24 48.4L40.4 49.28H41.68L41.84 48.72L41.44 48.4L41.12 48.08L33.2 42.8L24.72 37.2L20.24 33.92L17.84 32.24L16.64 30.72L16.16 27.36L18.32 24.96L21.28 25.2L22 25.36L24.96 27.68L31.28 32.56L39.6 38.72L40.8 39.68L41.36 39.36V39.12L40.8 38.24L36.32 30.08L31.52 21.76L29.36 18.32L28.8 16.24C28.5867 15.52 28.48 14.72 28.48 13.84L30.96 10.48L32.32 10L35.68 10.48L37.04 11.68L39.12 16.4L42.4 23.84L47.6 33.92L49.12 36.96L49.92 39.68L50.24 40.56H50.8V40.08L51.2 34.32L52 27.36L52.8 18.4L53.04 15.84L54.32 12.8L56.8 11.2L58.72 12.08L60.32 14.4L60.08 15.84L59.2 22L57.28 31.68L56.08 38.24H56.8L57.6 37.36L60.88 33.04L66.4 26.16L68.8 23.44L71.68 20.4L73.52 18.96H76.96L79.44 22.72L78.32 26.64L74.8 31.12L71.84 34.88L67.6 40.56L65.04 45.12L65.28 45.44H65.84L75.36 43.36L80.56 42.48L86.64 41.44L89.44 42.72L89.76 44L88.64 46.72L82.08 48.32L74.4 49.84L62.96 52.56L62.8 52.64L62.96 52.88L68.08 53.36L70.32 53.52H75.76L85.84 54.24L88.48 56L90 58.08L89.76 59.76L85.68 61.76L80.24 60.48L67.44 57.44L63.12 56.4H62.48V56.72L66.16 60.32L72.8 66.32L81.2 74.08L81.6 76L80.56 77.6L79.44 77.44L72.08 71.84L69.2 69.36L62.8 64H62.4V64.56L63.84 66.72L71.68 78.48L72.08 82.08L71.52 83.2L69.44 83.92L67.28 83.52L62.64 77.12L57.92 69.84L54.08 63.36L53.68 63.68L51.36 87.84L50.32 89.04L47.92 90Z" fill="white"/>
</svg>
