<svg width="100" height="100" viewBox="0 0 100 100" fill="none" xmlns="http://www.w3.org/2000/svg">
<path d="M65.1062 67.4312C65.3732 66.6497 65.4673 65.809 65.3807 64.9791C65.2941 64.1492 65.0293 63.3543 64.6083 62.6606C64.1759 62.0874 63.6455 61.6141 63.0474 61.2677C62.4494 60.9214 61.7955 60.7088 61.1231 60.6422L32.2456 60.2752C32.0797 60.2752 31.9137 60.0918 31.7478 60.0918C31.7091 60.0597 31.6777 60.0182 31.6561 59.9704C31.6345 59.9226 31.6233 59.8699 31.6233 59.8165C31.6233 59.7631 31.6345 59.7104 31.6561 59.6627C31.6777 59.6149 31.7091 59.5733 31.7478 59.5413C31.9137 59.1743 32.0797 58.9908 32.4116 58.9908L61.455 58.6239C63.2988 58.3976 65.0549 57.6324 66.5425 56.407C68.0301 55.1815 69.1956 53.54 69.9191 51.6514L71.5787 46.8808C71.5787 46.6973 71.7447 46.5138 71.5787 46.3303C70.6764 41.887 68.4869 37.8909 65.3427 34.949C62.1986 32.0072 58.2718 30.2805 54.1591 30.0313C50.0463 29.7822 45.9724 31.0242 42.5563 33.5686C39.1403 36.113 36.5689 39.8208 35.233 44.1285C33.4986 42.759 31.3831 42.1093 29.2583 42.2936C27.3084 42.534 25.4904 43.5005 24.103 45.0343C22.7157 46.5682 21.8415 48.5781 21.6241 50.734C21.5136 51.8374 21.5696 52.9536 21.79 54.0367C18.635 54.1331 15.6385 55.5867 13.4379 58.0882C11.2373 60.5897 10.0063 63.9417 10.0067 67.4312C9.97947 68.1092 10.0353 68.7881 10.1727 69.4495C10.1803 69.5928 10.2352 69.728 10.327 69.8294C10.4187 69.9309 10.541 69.9916 10.6706 70H63.9444C64.2764 70 64.6083 69.8165 64.6083 69.4495L65.1062 67.4312Z" fill="white"/>
<path d="M74.2334 46.8793H73.4036C73.2377 46.8793 73.0717 47.0628 72.9057 47.2462L71.744 51.6499C71.477 52.4314 71.3828 53.2721 71.4695 54.102C71.5561 54.9319 71.8209 55.7268 72.2419 56.4205C72.6743 56.9937 73.2047 57.467 73.8027 57.8134C74.4007 58.1597 75.0547 58.3723 75.7271 58.4389L81.8677 58.8059C82.0337 58.8059 82.1996 58.9894 82.3656 58.9894C82.4042 59.0214 82.4356 59.063 82.4572 59.1107C82.4788 59.1585 82.4901 59.2112 82.4901 59.2646C82.4901 59.318 82.4788 59.3707 82.4572 59.4184C82.4356 59.4662 82.4042 59.5078 82.3656 59.5398C82.1996 59.9068 82.0336 60.0903 81.7017 60.0903L75.3952 60.4572C73.5513 60.6835 71.7953 61.4487 70.3077 62.6741C68.8201 63.8996 67.6546 65.5411 66.9311 67.4297L66.5992 69.0811C66.4332 69.2646 66.5992 69.6315 66.9311 69.6315H88.8381C88.9057 69.6422 88.9747 69.6354 89.0395 69.6115C89.1043 69.5876 89.1632 69.5473 89.2115 69.4939C89.2598 69.4405 89.2962 69.3754 89.3178 69.3037C89.3394 69.2321 89.3457 69.1559 89.336 69.0811C89.7311 67.5264 89.954 65.9245 89.9998 64.3105C89.9735 59.6964 88.304 55.2796 85.3529 52.0169C82.4018 48.7542 78.4068 46.9084 74.2334 46.8793Z" fill="white"/>
</svg>
