<svg width="100" height="100" viewBox="0 0 100 100" fill="none" xmlns="http://www.w3.org/2000/svg">
<g clip-path="url(#clip0_104_314)">
<path d="M37.7319 89.996C44.7559 89.996 50.4566 84.0227 50.4566 76.6627V63.3293H37.7319C30.7078 63.3293 25.0071 69.3027 25.0071 76.6627C25.0071 84.0227 30.7078 89.996 37.7319 89.996Z" fill="white"/>
<path d="M25.0071 49.9979C25.0071 42.6379 30.7078 36.6646 37.7319 36.6646H50.4566V63.3312H37.7319C30.7078 63.3312 25.0071 57.3579 25.0071 49.9979Z" fill="white"/>
<path d="M25.0138 23.3331C25.0138 15.9731 30.7145 9.99976 37.7385 9.99976H50.4632V36.6664H37.7385C30.7145 36.6664 25.0138 30.6931 25.0138 23.3331Z" fill="white"/>
<path d="M50.4536 9.99976H63.1783C70.2024 9.99976 75.9031 15.9731 75.9031 23.3331C75.9031 30.6931 70.2024 36.6664 63.1783 36.6664H50.4536V9.99976Z" fill="white"/>
<path d="M75.9031 49.9979C75.9031 57.3579 70.2024 63.3312 63.1783 63.3312C56.1543 63.3312 50.4536 57.3579 50.4536 49.9979C50.4536 42.6379 56.1543 36.6646 63.1783 36.6646C70.2024 36.6646 75.9031 42.6379 75.9031 49.9979Z" fill="white"/>
</g>
<defs>
<clipPath id="clip0_104_314">
<rect width="50.9091" height="80" fill="white" transform="translate(25 10)"/>
</clipPath>
</defs>
</svg>
