<svg width="100" height="100" viewBox="0 0 100 100" fill="none" xmlns="http://www.w3.org/2000/svg">
<path d="M44.0967 68.4749C33.3975 67.1844 25.8594 59.5221 25.8594 49.6016C25.8594 45.5689 27.3184 41.2135 29.75 38.3099C28.6963 35.6483 28.8584 30.0024 30.0742 27.6634C33.3164 27.2602 37.6934 28.9539 40.2871 31.2929C43.3672 30.3251 46.6094 29.8411 50.5811 29.8411C54.5527 29.8411 57.7949 30.3251 60.7128 31.2122C63.2255 28.9539 67.6836 27.2602 70.9257 27.6634C72.0605 29.8411 72.2226 35.487 71.1689 38.2292C73.7626 41.2941 75.1406 45.4075 75.1406 49.6016C75.1406 59.5221 67.6025 67.023 56.7412 68.3942C59.497 70.1686 61.3613 74.04 61.3613 78.4761V86.8642C61.3613 89.2838 63.3876 90.6549 65.8193 89.6871C80.4902 84.1219 92 69.5233 92 51.4566C92 28.6313 73.3574 10 50.4189 10C27.4805 10 9 28.6313 9 51.4566C9 69.362 20.4287 84.2026 35.8291 89.7678C38.0176 90.5743 40.125 89.1225 40.125 86.9448V80.4924C38.9902 80.9764 37.5313 81.299 36.2344 81.299C30.8848 81.299 27.7236 78.3954 25.4541 72.9915C24.5625 70.8139 23.5898 69.5233 21.7255 69.2814C20.7529 69.2007 20.4287 68.7975 20.4287 68.3136C20.4287 67.3456 22.0498 66.6198 23.6709 66.6198C26.0215 66.6198 28.0479 68.0716 30.1553 71.0558C31.7763 73.3948 33.4785 74.4433 35.5049 74.4433C37.5313 74.4433 38.8281 73.7174 40.6924 71.8623C42.0703 70.4912 43.124 69.2814 44.0967 68.4749Z" fill="white"/>
</svg>
