<svg width="100" height="100" viewBox="0 0 100 100" fill="none" xmlns="http://www.w3.org/2000/svg">
<path fill-rule="evenodd" clip-rule="evenodd" d="M90 50.9093C90 48.073 89.7403 45.3457 89.2579 42.7275H50.8163V58.2003H72.7829C71.8367 63.2003 68.961 67.4366 64.6382 70.273V80.3094H77.8293C85.5473 73.3457 90 63.0912 90 50.9093Z" fill="white"/>
<path fill-rule="evenodd" clip-rule="evenodd" d="M50.8164 90C61.8368 90 71.0761 86.4185 77.8293 80.3094L64.6382 70.273C60.9833 72.673 56.308 74.0909 50.8164 74.0909C40.1856 74.0909 31.1874 67.0545 27.9778 57.6H14.3414V67.9636C21.0575 81.0364 34.8609 90 50.8164 90Z" fill="white"/>
<path fill-rule="evenodd" clip-rule="evenodd" d="M27.9778 57.6C27.1614 55.2 26.6976 52.6366 26.6976 50.0002C26.6976 47.3639 27.1614 44.8002 27.9777 42.4002V32.0366H14.3414C11.577 37.4366 10 43.5457 10 50.0002C10 56.4548 11.577 62.5636 14.3414 67.9636L27.9778 57.6Z" fill="white"/>
<path fill-rule="evenodd" clip-rule="evenodd" d="M50.8164 25.9091C56.809 25.9091 62.1893 27.9273 66.4194 31.8909L78.1262 20.4182C71.0576 13.9636 61.8182 10 50.8164 10C34.8609 10 21.0575 18.9638 14.3414 32.0366L27.9777 42.4002C31.1874 32.9457 40.1856 25.9091 50.8164 25.9091Z" fill="white"/>
</svg>
