<svg width="100" height="100" viewBox="0 0 100 100" fill="none" xmlns="http://www.w3.org/2000/svg">
<path d="M75.4564 79.7236C75.8272 80.0944 76.4224 80.1169 76.8111 79.7648C77.3054 79.317 77.7913 78.8547 78.2682 78.3778C93.9106 62.7355 93.9106 37.3742 78.2682 21.7318C62.6258 6.08941 37.2645 6.08941 21.6222 21.7318C21.1453 22.2087 20.6829 22.6946 20.2352 23.1889C19.8831 23.5776 19.9056 24.1728 20.2764 24.5436L75.4564 79.7236Z" fill="white"/>
<path d="M70.2766 84.5773C70.8286 84.2516 70.9124 83.4946 70.4592 83.0414L16.9586 29.5408C16.5054 29.0876 15.7484 29.1713 15.4227 29.7234C14.7023 30.9447 14.0523 32.196 13.4726 33.4715C13.3026 33.8454 13.3871 34.2843 13.6776 34.5747L65.4253 86.3224C65.7157 86.6129 66.1546 86.6973 66.5285 86.5274C67.804 85.9477 69.0553 85.2977 70.2766 84.5773Z" fill="white"/>
<path d="M57.9752 89.301C58.7371 89.1458 58.9987 88.2109 58.4489 87.661L12.339 41.5511C11.7891 41.0013 10.8542 41.2629 10.699 42.0248C10.3609 43.6854 10.1288 45.3633 10.0027 47.0477C9.98127 47.3343 10.088 47.6152 10.2912 47.8184L52.1816 89.7088C52.3848 89.912 52.6657 90.0187 52.9523 89.9973C54.6367 89.8712 56.3146 89.6391 57.9752 89.301Z" fill="white"/>
<path d="M40.7926 89.0555C41.7343 89.2756 42.3159 88.1581 41.632 87.4742L12.5258 58.368C11.8419 57.6841 10.7244 58.2657 10.9445 59.2074C12.5861 66.2328 16.1453 72.901 21.6222 78.3778C27.099 83.8547 33.7672 87.4139 40.7926 89.0555Z" fill="white"/>
</svg>
