<svg width="73" height="24" viewBox="0 0 73 24" fill="none" xmlns="http://www.w3.org/2000/svg">
<path d="M22 12C22 13.3261 21.4732 14.5979 20.5355 15.5355C19.5979 16.4732 18.3261 17 17 17C15.6739 17 14.4021 16.4732 13.4645 15.5355C12.5268 14.5979 12 13.3261 12 12C12 10.6739 11.4732 9.40215 10.5355 8.46447C9.59785 7.52678 8.32608 7 7 7C5.67392 7 4.40215 7.52678 3.46447 8.46447C2.52678 9.40215 2 10.6739 2 12" stroke="white" stroke-width="2" stroke-linecap="round" stroke-linejoin="round"/>
<path d="M7.00002 20.7C5.84633 20.037 5.00328 18.9428 4.65634 17.6581C4.3094 16.3735 4.48698 15.0037 5.15002 13.85C5.81306 12.6963 6.90725 11.8533 8.19187 11.5063C9.4765 11.1594 10.8463 11.337 12 12C12.5647 12.3283 13.1885 12.5422 13.8359 12.6294C14.4832 12.7166 15.1414 12.6755 15.7728 12.5083C16.4043 12.3412 16.9966 12.0513 17.516 11.6552C18.0354 11.2592 18.4717 10.7647 18.8 10.2C19.1283 9.63532 19.3422 9.0115 19.4294 8.36416C19.5166 7.71682 19.4755 7.05865 19.3083 6.42721C19.1412 5.79577 18.8513 5.20344 18.4553 4.68403C18.0592 4.16462 17.5647 3.7283 17 3.4" stroke="white" stroke-width="2" stroke-linecap="round" stroke-linejoin="round"/>
<path d="M7 3.3C8.14043 2.63696 9.49754 2.45411 10.7728 2.79167C12.048 3.12924 13.137 3.95957 13.8 5.1C14.463 6.24043 14.6459 7.59754 14.3083 8.87279C13.9708 10.148 13.1404 11.237 12 11.9C10.8596 12.563 10.0292 13.652 9.69167 14.9272C9.35411 16.2025 9.53696 17.5596 10.2 18.7C10.863 19.8404 11.952 20.6708 13.2272 21.0083C14.5025 21.3459 15.8596 21.163 17 20.5" stroke="white" stroke-width="2" stroke-linecap="round" stroke-linejoin="round"/>
<path d="M12 22C17.5228 22 22 17.5228 22 12C22 6.47715 17.5228 2 12 2C6.47715 2 2 6.47715 2 12C2 17.5228 6.47715 22 12 22Z" stroke="white" stroke-width="2" stroke-linecap="round" stroke-linejoin="round"/>
<path d="M34.2614 17.5H32.3977L36.5852 5.86364H38.6136L42.8011 17.5H40.9375L37.6477 7.97727H37.5568L34.2614 17.5ZM34.5739 12.9432H40.6193V14.4205H34.5739V12.9432ZM44.3452 17.5V8.77273H45.9872V10.1591H46.0781C46.2372 9.68939 46.5175 9.32008 46.919 9.05114C47.3243 8.77841 47.7827 8.64205 48.294 8.64205C48.4001 8.64205 48.5251 8.64583 48.669 8.65341C48.8168 8.66098 48.9323 8.67045 49.0156 8.68182V10.3068C48.9474 10.2879 48.8262 10.267 48.652 10.2443C48.4777 10.2178 48.3035 10.2045 48.1293 10.2045C47.7277 10.2045 47.3698 10.2898 47.0554 10.4602C46.7448 10.6269 46.4986 10.8598 46.3168 11.1591C46.1349 11.4545 46.044 11.7917 46.044 12.1705V17.5H44.3452ZM58.2173 8.77273L55.0526 17.5H53.2344L50.0639 8.77273H51.8878L54.098 15.4886H54.1889L56.3935 8.77273H58.2173ZM59.8139 17.5V8.77273H61.5128V17.5H59.8139ZM60.6719 7.42614C60.3764 7.42614 60.1226 7.32765 59.9105 7.13068C59.7022 6.92992 59.598 6.69129 59.598 6.41477C59.598 6.13447 59.7022 5.89583 59.9105 5.69886C60.1226 5.49811 60.3764 5.39773 60.6719 5.39773C60.9673 5.39773 61.2192 5.49811 61.4276 5.69886C61.6397 5.89583 61.7457 6.13447 61.7457 6.41477C61.7457 6.69129 61.6397 6.92992 61.4276 7.13068C61.2192 7.32765 60.9673 7.42614 60.6719 7.42614ZM67.0653 17.6705C66.3608 17.6705 65.732 17.4905 65.179 17.1307C64.6297 16.767 64.1979 16.25 63.8835 15.5795C63.5729 14.9053 63.4176 14.0966 63.4176 13.1534C63.4176 12.2102 63.5748 11.4034 63.8892 10.733C64.2074 10.0625 64.643 9.54924 65.196 9.19318C65.7491 8.83712 66.3759 8.65909 67.0767 8.65909C67.6184 8.65909 68.054 8.75 68.3835 8.93182C68.7169 9.10985 68.9744 9.31818 69.1562 9.55682C69.3419 9.79545 69.4858 10.0057 69.5881 10.1875H69.6903V5.86364H71.3892V17.5H69.7301V16.142H69.5881C69.4858 16.3277 69.3381 16.5398 69.1449 16.7784C68.9555 17.017 68.6941 17.2254 68.3608 17.4034C68.0275 17.5814 67.5956 17.6705 67.0653 17.6705ZM67.4403 16.2216C67.929 16.2216 68.3419 16.0928 68.679 15.8352C69.0199 15.5739 69.2775 15.2121 69.4517 14.75C69.6297 14.2879 69.7188 13.75 69.7188 13.1364C69.7188 12.5303 69.6316 12 69.4574 11.5455C69.2831 11.0909 69.0275 10.7367 68.6903 10.483C68.3532 10.2292 67.9366 10.1023 67.4403 10.1023C66.929 10.1023 66.5028 10.2348 66.1619 10.5C65.821 10.7652 65.5634 11.1269 65.3892 11.5852C65.2188 12.0436 65.1335 12.5606 65.1335 13.1364C65.1335 13.7197 65.2206 14.2443 65.3949 14.7102C65.5691 15.1761 65.8267 15.5455 66.1676 15.8182C66.5123 16.0871 66.9366 16.2216 67.4403 16.2216Z" fill="white"/>
</svg>
