<svg width="100" height="100" viewBox="0 0 100 100" fill="none" xmlns="http://www.w3.org/2000/svg">
<g clip-path="url(#clip0_10_186)">
<path fill-rule="evenodd" clip-rule="evenodd" d="M39.2611 31.4778H17.9803C13.5728 31.4778 10 35.0506 10 39.4581C10 43.8656 13.5728 47.4384 17.9803 47.4384H39.2611C43.6686 47.4384 47.2414 43.8656 47.2414 39.4581C47.2414 35.0506 43.6686 31.4778 39.2611 31.4778Z" fill="white"/>
<path fill-rule="evenodd" clip-rule="evenodd" d="M68.5222 39.4581V18.1773C68.5222 13.7698 64.9494 10.197 60.5419 10.197C56.1344 10.197 52.5616 13.7698 52.5616 18.1773V39.4581C52.5616 43.8656 56.1344 47.4384 60.5419 47.4384C64.9494 47.4384 68.5222 43.8656 68.5222 39.4581Z" fill="white"/>
<path fill-rule="evenodd" clip-rule="evenodd" d="M60.5419 68.7193H81.8227C86.2301 68.7193 89.803 65.1465 89.803 60.739C89.803 56.3315 86.2301 52.7587 81.8227 52.7587H60.5419C56.1344 52.7587 52.5616 56.3315 52.5616 60.739C52.5616 65.1465 56.1344 68.7193 60.5419 68.7193Z" fill="white"/>
<path fill-rule="evenodd" clip-rule="evenodd" d="M31.2808 60.739V82.0198C31.2808 86.4272 34.8536 90 39.2611 90C43.6686 90 47.2414 86.4272 47.2414 82.0198V60.739C47.2414 56.3311 43.6686 52.7587 39.2611 52.7587C34.8536 52.7587 31.2808 56.3315 31.2808 60.739Z" fill="white"/>
<path fill-rule="evenodd" clip-rule="evenodd" d="M39.2611 10.197C34.8536 10.197 31.2808 13.7698 31.2808 18.1773C31.2808 22.5848 34.8536 26.1576 39.2611 26.1576H47.2414V18.1773C47.2414 13.7698 43.6686 10.197 39.2611 10.197Z" fill="white"/>
<path fill-rule="evenodd" clip-rule="evenodd" d="M89.803 39.4581C89.803 35.0506 86.2301 31.4778 81.8227 31.4778C77.4152 31.4778 73.8424 35.0506 73.8424 39.4581V47.4384H81.8227C86.2301 47.4384 89.803 43.8656 89.803 39.4581Z" fill="white"/>
<path fill-rule="evenodd" clip-rule="evenodd" d="M60.5419 90C64.9494 90 68.5222 86.4272 68.5222 82.0197C68.5222 77.6122 64.9494 74.0394 60.5419 74.0394H52.5616V82.0197C52.5616 86.4272 56.1344 90 60.5419 90Z" fill="white"/>
<path fill-rule="evenodd" clip-rule="evenodd" d="M10 60.739C10 65.1465 13.5728 68.7193 17.9803 68.7193C22.3878 68.7193 25.9606 65.1465 25.9606 60.739V52.7587H17.9803C13.5728 52.7587 10 56.3315 10 60.739Z" fill="white"/>
</g>
<defs>
<clipPath id="clip0_10_186">
<rect width="80" height="80" fill="white" transform="translate(10 10)"/>
</clipPath>
</defs>
</svg>
